<svg id="XD_Ideas" data-name="Layer 1" xmlns="http://www.w3.org/2000/svg" width="95.74" height="29.42"><defs><style>.xd-letters{fill:#000}.ideas-letters{isolation:isolate}</style></defs><g id="Group_75338" data-name="Group 75338"><g id="xd_app_RGB" data-name="xd app RGB"><path id="Path_39994" data-name="Path 39994" d="M24.53 28.42H5.65A4.66 4.66 0 011 23.76V5.65A4.65 4.65 0 015.65 1h18.87a4.65 4.65 0 014.65 4.65h0v18.1a4.66 4.66 0 01-4.62 4.67z" fill="none" stroke="#000" stroke-width="2"/><g id="Group_1" data-name="Group 1"><path id="Path_39995" data-name="Path 39995" class="xd-letters" d="M12.09 13.75l3.59 6.89c.06.1 0 .2-.08.2h-2.23a.26.26 0 01-.27-.17c-.82-1.69-1.65-3.38-2.51-5.2C9.8 17.19 9 19 8.13 20.69a.26.26 0 01-.23.14H5.79c-.13 0-.14-.1-.08-.18L9.22 14 5.83 7.2a.09.09 0 010-.14A.09.09 0 015.9 7h2.2a.21.21 0 01.24.14c.8 1.69 1.62 3.43 2.4 5.14.74-1.7 1.56-3.45 2.36-5.13.06-.1.1-.17.23-.17h2.06c.1 0 .14.08.08.18z" transform="translate(-.22)"/><path id="Path_39996" data-name="Path 39996" class="xd-letters" d="M16.31 15.83a5 5 0 014.69-5.3 3.27 3.27 0 01.44 0 5 5 0 01.67 0V7.15a.13.13 0 01.13-.15h2c.1 0 .13 0 .13.1v11.78a8.86 8.86 0 00.06 1.26c0 .07 0 .1-.1.14a7.71 7.71 0 01-3.28.74c-2.76-.02-4.74-1.7-4.74-5.19zm5.8-3.28a1.91 1.91 0 00-.75-.12c-1.61 0-2.74 1.24-2.74 3.3 0 2.36 1.15 3.31 2.6 3.31a2.72 2.72 0 00.89-.14z" transform="translate(-.22)"/></g></g><g id="Ideas" class="ideas-letters"><g class="ideas-letters"><path class="xd-letters" d="M46.16 19.44L47.74 21h-8l1.61-1.51a.62.62 0 00.21-.58V6.26a.6.6 0 00-.21-.57l-1.6-1.52h8l-1.59 1.52a.56.56 0 00-.24.57v12.6a.57.57 0 00.24.58zM60.29 19.2c0 .31 0 .38.22.57l1.2 1.23h-5.33v-2.26a3.7 3.7 0 01-3.53 2.45c-2.73 0-4.73-2.16-4.73-6.1 0-3.69 2.16-6.16 5.16-6.16a3.15 3.15 0 013.1 1.92v-5a.61.61 0 00-.24-.6L55 4.17l5.3-.63zm-3.91-.72v-7.42a2 2 0 00-1.56-.74c-1.3 0-2.54 1.17-2.54 4.65 0 3.27 1.08 4.42 2.42 4.42a2.12 2.12 0 001.68-.91zM66 14.52v.05c0 3.12 1.61 4.43 3.46 4.43a3.9 3.9 0 003.65-2.21c-.63 3-2.5 4.44-5.31 4.44-3 0-5.88-1.82-5.88-6.05 0-4.44 2.83-6.21 6-6.21 2.54 0 5.25 1.2 5.25 5.06v.53zm0-.43h3.53v-.72c0-3.15-.65-4-1.63-4-1.15.01-1.82 1.24-1.9 4.72zM84.46 14.64l-.14 3.41c0 .93.16 1.39.64 1.39a.72.72 0 00.68-.43 2 2 0 01-.19.86 2.68 2.68 0 01-5-1 3.37 3.37 0 01-3.26 2.33A3.15 3.15 0 0174 17.81a3.75 3.75 0 014-3.63 4.32 4.32 0 012.54.65l.05-2.57v-.12c0-1.65-.5-2.76-1.75-2.76-.48 0-.51 0-.65.29l-1.94 3.6-1.54-3.43a14.71 14.71 0 014.85-.91A5.17 5.17 0 0183.28 10a4.87 4.87 0 011.2 3.74c0 .26-.02.83-.02.9zm-6.72 2.76c0 1.32.6 2 1.42 2a1.74 1.74 0 001.36-.84v-3.5a2.63 2.63 0 00-.89-.14c-1.19.01-1.89 1.08-1.89 2.48zM90.46 16.89l-1.63-.76a3.67 3.67 0 01-2.33-3.41c0-2.28 1.87-3.79 4.92-3.79a14.58 14.58 0 014.22.64l-1.34 3.48-1.92-3.33c-.15-.24-.22-.36-.55-.36h-.34c-1.06 0-1.94.55-1.94 1.68s.79 1.56 2.2 2.18l1.54.67c1.49.65 2.67 1.47 2.67 3.32 0 2.59-2.19 4-5.38 4a14.23 14.23 0 01-4.42-.74l1.32-3.72 1.92 3.72a.51.51 0 00.5.31h.56c1.39 0 2.25-.72 2.25-1.75s-.71-1.42-2.25-2.14z" transform="translate(-.22)"/></g></g></g></svg>