<svg width="219" height="81" viewBox="0 0 219 81" fill="none" xmlns="http://www.w3.org/2000/svg">
<path fill-rule="evenodd" clip-rule="evenodd" d="M181.416 22.796L194.323 30.2097V45.0371L181.416 52.4508L168.508 45.0371V30.2097L181.416 22.796ZM175.204 34.0553L181.416 30.4873L187.628 34.0553V41.1915L181.416 44.7596L175.204 41.1915V34.0553ZM168.638 54.773H194.371V63.2359H168.638V54.773ZM199.764 24.7003H194.29V30.1464H199.764V24.7003ZM97.6758 30.4277L92.0026 24.7517C87.8619 20.609 80.782 23.5431 80.782 29.4017V50.588C80.782 56.4467 87.8619 59.3807 92.0026 55.238L97.6757 49.5621L103.349 55.238C107.49 59.3807 114.57 56.4467 114.57 50.588V29.4018C114.57 23.5431 107.49 20.6091 103.349 24.7518L97.6758 30.4277ZM69.172 30.0909C69.172 31.0145 69.8159 31.7875 70.6793 31.9843H76.1226C77.2941 31.9843 78.2439 32.9348 78.2439 34.1072C78.2439 34.7315 77.9695 35.324 77.4935 35.7275L73.6826 38.9576C73.042 39.5007 73.042 40.4891 73.6826 41.0323L77.4935 44.2623C77.7823 44.507 77.9968 44.821 78.1211 45.1696C78.2015 45.396 78.2439 45.6369 78.2439 45.8826C78.2439 47.055 77.2941 48.0055 76.1226 48.0055H73.5867H71.064C70.1411 48.0055 69.3687 48.6499 69.172 49.514V54.9613C69.172 56.1337 68.2222 57.0842 67.0507 57.0842C66.821 57.0842 66.5959 57.047 66.3829 56.9761C66.0167 56.8547 65.6862 56.6344 65.4316 56.3332L62.2039 52.5195C61.6612 51.8785 60.6735 51.8785 60.1307 52.5195L56.9031 56.3332C56.4998 56.8096 55.9078 57.0842 55.284 57.0842C54.1125 57.0842 53.1627 56.1337 53.1627 54.9613V52.4235V49.8989C53.1627 48.9754 52.5187 48.2024 51.6553 48.0055H46.212C45.0405 48.0055 44.0907 47.055 44.0907 45.8826C44.0907 45.2583 44.3651 44.6659 44.8411 44.2623L48.6521 41.0323C49.2926 40.4891 49.2926 39.5007 48.6521 38.9576L44.8411 35.7275C44.3651 35.324 44.0907 34.7315 44.0907 34.1072C44.0907 32.9348 45.0405 31.9843 46.212 31.9843H48.748H51.2707C52.1935 31.9843 52.966 31.3399 53.1627 30.4759V25.0285C53.1627 23.8562 54.1125 22.9057 55.284 22.9057C55.9078 22.9057 56.4998 23.1803 56.9031 23.6566L60.1307 27.4704C60.6735 28.1114 61.6612 28.1114 62.2039 27.4704L65.4316 23.6566C65.6146 23.4401 65.8367 23.2652 66.0831 23.1393C66.3791 22.9876 66.7103 22.9057 67.0507 22.9057C68.2222 22.9057 69.172 23.8562 69.172 25.0285V27.5664V30.0909ZM41.4259 22.9978H34.0473C29.2922 22.9978 25.234 24.666 21.8726 28.0025C18.5112 31.339 16.8306 35.3671 16.8306 40.087C16.8306 44.8069 18.5112 48.8351 21.8726 52.1716C25.234 55.5081 29.2922 57.1763 34.0473 57.1763H41.4259V47.411H34.0473C32.0141 47.411 30.276 46.6949 28.8331 45.2626C27.3901 43.8304 26.6687 42.1052 26.6687 40.087C26.6687 38.0689 27.3901 36.3437 28.8331 34.9114C30.276 33.4792 32.0141 32.7631 34.0473 32.7631H41.4259V22.9978ZM158.671 28.6033C158.671 31.75 156.107 34.3008 152.944 34.3008C149.781 34.3008 147.217 31.75 147.217 28.6033C147.217 25.4566 149.781 22.9058 152.944 22.9058C156.107 22.9058 158.671 25.4566 158.671 28.6033ZM164.712 45.3903H156.342V57.0909H147.217V45.3903H152.897C154.574 45.3788 155.93 44.0228 155.93 42.3517V35.1018H164.712V45.3903ZM122.626 22.9058H140.551V24.3918H142.045V25.8778H143.538V33.3079H140.551V25.8778L140.551 25.8778V27.3638H139.057V25.8778H133.082V33.3079L140.551 33.3079L140.551 36.28H133.082V54.1123H131.775V55.5983H130.095V57.0843H122.626V55.5983H121.132V54.1122H119.639V48.1681H121.132V46.6822H122.626L124.12 46.6821V48.1682L122.626 48.1681L122.626 52.6262H124.12V54.1122H128.788V52.6263H130.095V46.6821H122.626V43.7101H130.095V36.28H122.626V33.3079L122.626 33.3079L122.626 31.8218H124.12V33.3079L123.196 33.3079H130.095V25.8778H124.12V27.3638H122.626L122.626 22.9058ZM122.626 33.3079H121.132V31.8219H119.639V25.8778H121.132V24.3918H122.626V33.3079ZM122.626 36.28L119.639 36.28V43.7101H121.132V45.1961H122.626V43.7101L122.626 43.7101L124.12 43.71V42.224H122.626V37.766H124.12V36.28L122.626 36.28ZM133.082 36.28L134.576 36.28V37.766H133.082L133.082 36.28ZM140.551 36.28L143.538 36.28V43.7101H142.045V45.1961H140.551V46.6821H134.576V45.1961H133.082V42.224H134.576V43.7101H139.057V42.224H140.551V37.766H139.057V36.28L140.551 36.28ZM139.057 31.8218H140.551V33.3079H139.057V31.8218ZM122.626 34.7939H121.132V36.28H122.626V34.7939Z" fill="black"/>
</svg>
