<?xml version="1.0" encoding="utf-8"?>
<!-- Generator: Adobe Illustrator 22.0.1, SVG Export Plug-In . SVG Version: 6.00 Build 0)  -->
<svg version="1.1" id="Layer_1" xmlns="http://www.w3.org/2000/svg" xmlns:xlink="http://www.w3.org/1999/xlink" x="0px" y="0px"
	 viewBox="0 0 200 200" style="enable-background:new 0 0 200 200;" xml:space="preserve">
<style type="text/css">
	.st0{clip-path:url(#SVGID_2_);fill:url(#SVGID_3_);}
	.st1{fill:#48485E;}
</style>
<g>
	<g>
		<g>
			<defs>
				<path id="SVGID_1_" d="M27.8,106.1L33,115l-1.7,1l-5.3-8.8L27.8,106.1z M23,109l5.3,8.8l1.7-1l-5.3-8.8L23,109z M40.1,104.3
					h-5.8l5.2-2.7l-0.9-1.7l-5.4,2.8l3.3-5.1l-1.6-1l-5.6,8.7l5.3,8.8l1.7-1l-3.1-5.2l5.3,3l0.9-1.7l-5.3-2.9h6V104.3z M36.5,93.7
					l-5.3-8.8l-1.7,1l5.3,8.8L36.5,93.7z M39.6,91.8L34.3,83l-1.7,1l5.3,8.8L39.6,91.8z M24.1,101l5.4-2.8l-3.3,5.1l1.6,1l5.6-8.7
					L28,86.7l-1.7,1l3.1,5.2l-5.3-3l-0.9,1.7l5.3,2.9h-6v1.9h5.8l-5.2,2.7L24.1,101z"/>
			</defs>
			<clipPath id="SVGID_2_">
				<use xlink:href="#SVGID_1_"  style="overflow:visible;"/>
			</clipPath>
			<linearGradient id="SVGID_3_" gradientUnits="userSpaceOnUse" x1="31.0265" y1="118.3924" x2="31.0265" y2="82.4586">
				<stop  offset="0.3131" style="stop-color:#3EBF9C"/>
				<stop  offset="0.7879" style="stop-color:#D8E530"/>
			</linearGradient>
			<rect x="20.9" y="82.5" class="st0" width="20.2" height="35.9"/>
		</g>
	</g>
	<g>
		<path class="st1" d="M54.3,96.3c-0.3-0.4-0.7-0.6-1.2-0.8c-0.5-0.2-1-0.3-1.4-0.3c-0.3,0-0.5,0-0.8,0.1c-0.3,0.1-0.5,0.2-0.8,0.3
			c-0.2,0.1-0.4,0.3-0.6,0.5c-0.2,0.2-0.2,0.5-0.2,0.8c0,0.5,0.2,0.9,0.5,1.1c0.4,0.3,0.8,0.5,1.4,0.7c0.6,0.2,1.2,0.4,1.8,0.5
			c0.6,0.2,1.2,0.4,1.8,0.8c0.6,0.3,1,0.8,1.4,1.3c0.4,0.6,0.5,1.3,0.5,2.3c0,0.9-0.2,1.7-0.5,2.4c-0.3,0.7-0.8,1.2-1.4,1.7
			c-0.6,0.4-1.2,0.8-2,1c-0.8,0.2-1.6,0.3-2.4,0.3c-1.1,0-2-0.2-2.9-0.5c-0.9-0.3-1.7-0.8-2.5-1.6l2.5-2.8c0.4,0.5,0.8,0.9,1.4,1.1
			c0.6,0.3,1.1,0.4,1.7,0.4c0.3,0,0.6,0,0.9-0.1c0.3-0.1,0.6-0.2,0.8-0.3c0.2-0.1,0.4-0.3,0.6-0.5c0.1-0.2,0.2-0.5,0.2-0.8
			c0-0.5-0.2-0.9-0.6-1.2c-0.4-0.3-0.8-0.5-1.4-0.7c-0.6-0.2-1.2-0.4-1.8-0.6c-0.7-0.2-1.3-0.5-1.8-0.8c-0.6-0.3-1-0.8-1.4-1.3
			c-0.4-0.5-0.6-1.3-0.6-2.2c0-0.9,0.2-1.6,0.5-2.3c0.3-0.7,0.8-1.2,1.4-1.6c0.6-0.4,1.2-0.8,2-1c0.7-0.2,1.5-0.3,2.3-0.3
			c0.9,0,1.8,0.1,2.7,0.4c0.9,0.3,1.6,0.7,2.3,1.3L54.3,96.3z"/>
		<path class="st1" d="M58.8,97.4h3.2v1.5h0c0.1-0.2,0.3-0.4,0.5-0.6c0.2-0.2,0.5-0.4,0.8-0.6c0.3-0.2,0.6-0.3,1-0.4
			c0.4-0.1,0.7-0.2,1.1-0.2c0.8,0,1.6,0.1,2.2,0.4c0.7,0.3,1.2,0.7,1.7,1.2c0.5,0.5,0.8,1.1,1.1,1.8c0.3,0.7,0.4,1.5,0.4,2.3
			c0,0.8-0.1,1.5-0.4,2.2c-0.2,0.7-0.6,1.3-1,1.9c-0.4,0.5-1,1-1.6,1.3c-0.6,0.3-1.3,0.5-2.1,0.5c-0.7,0-1.4-0.1-2-0.3
			c-0.6-0.2-1.1-0.6-1.5-1.1h0v6.4h-3.4V97.4z M61.9,102.9c0,0.8,0.2,1.5,0.7,2c0.5,0.5,1.2,0.8,2,0.8c0.9,0,1.5-0.3,2-0.8
			c0.5-0.5,0.7-1.2,0.7-2c0-0.8-0.2-1.5-0.7-2c-0.5-0.5-1.2-0.8-2-0.8c-0.9,0-1.5,0.3-2,0.8C62.2,101.4,61.9,102.1,61.9,102.9z"/>
		<path class="st1" d="M72.7,97.4h3.4v1.8h0c0.4-0.7,0.8-1.2,1.3-1.5c0.5-0.3,1.1-0.5,1.9-0.5c0.2,0,0.4,0,0.6,0
			c0.2,0,0.4,0,0.5,0.1v3.1c-0.2-0.1-0.5-0.1-0.7-0.2c-0.2,0-0.5-0.1-0.7-0.1c-0.7,0-1.2,0.1-1.6,0.3c-0.4,0.2-0.7,0.4-0.9,0.8
			c-0.2,0.3-0.3,0.7-0.4,1.2c-0.1,0.5-0.1,1-0.1,1.5v4.6h-3.4V97.4z"/>
		<path class="st1" d="M82.2,93.9c0-0.5,0.2-1,0.6-1.4c0.4-0.4,0.9-0.6,1.4-0.6c0.5,0,1,0.2,1.4,0.6c0.4,0.4,0.6,0.9,0.6,1.4
			c0,0.5-0.2,1-0.6,1.4c-0.4,0.4-0.9,0.6-1.4,0.6c-0.5,0-1-0.2-1.4-0.6C82.4,94.9,82.2,94.4,82.2,93.9z M82.5,97.4h3.4v11.1h-3.4
			V97.4z"/>
		<path class="st1" d="M88.4,97.4h3.3v1.5h0c0.1-0.2,0.3-0.4,0.5-0.6c0.2-0.2,0.4-0.4,0.7-0.6c0.3-0.2,0.6-0.3,0.9-0.4
			c0.4-0.1,0.7-0.2,1.1-0.2c0.9,0,1.6,0.1,2.1,0.4c0.5,0.3,0.9,0.6,1.2,1.1c0.3,0.5,0.5,1,0.6,1.7c0.1,0.6,0.2,1.3,0.2,2.1v6.1h-3.4
			v-5.4c0-0.3,0-0.7,0-1c0-0.3-0.1-0.7-0.2-0.9c-0.1-0.3-0.3-0.5-0.5-0.7c-0.2-0.2-0.6-0.3-1-0.3c-0.4,0-0.8,0.1-1.1,0.2
			s-0.5,0.4-0.6,0.6c-0.1,0.3-0.2,0.6-0.3,0.9c0,0.3-0.1,0.7-0.1,1.1v5.5h-3.4V97.4z"/>
		<path class="st1" d="M113.2,107.6c0,2.1-0.5,3.7-1.6,4.8c-1.1,1.1-2.7,1.6-4.8,1.6c-1,0-2-0.1-2.9-0.3c-1-0.2-1.8-0.7-2.7-1.3
			l1.9-2.8c0.5,0.4,1.1,0.8,1.7,1.1c0.6,0.3,1.2,0.4,1.9,0.4c1.1,0,1.8-0.3,2.3-0.8c0.5-0.5,0.7-1.2,0.7-2v-1.1h0
			c-0.4,0.5-0.9,0.9-1.5,1.1c-0.6,0.2-1.1,0.3-1.7,0.3c-0.8,0-1.6-0.1-2.2-0.4c-0.7-0.3-1.2-0.7-1.7-1.2c-0.5-0.5-0.9-1.1-1.1-1.8
			c-0.3-0.7-0.4-1.5-0.4-2.3c0-0.7,0.1-1.4,0.4-2.2c0.2-0.7,0.6-1.3,1-1.9c0.4-0.5,1-1,1.6-1.3c0.6-0.3,1.3-0.5,2.1-0.5
			c0.5,0,0.9,0.1,1.3,0.2c0.4,0.1,0.8,0.2,1.1,0.4c0.3,0.2,0.6,0.4,0.8,0.6c0.2,0.2,0.4,0.4,0.5,0.6h0v-1.5h3.2V107.6z M104.5,102.9
			c0,0.4,0.1,0.7,0.2,1c0.1,0.3,0.3,0.6,0.6,0.9c0.3,0.3,0.5,0.5,0.9,0.6c0.3,0.2,0.7,0.2,1.1,0.2c0.4,0,0.7-0.1,1.1-0.2
			c0.3-0.2,0.6-0.4,0.9-0.6c0.3-0.3,0.4-0.5,0.6-0.9c0.1-0.3,0.2-0.7,0.2-1c0-0.4-0.1-0.7-0.2-1c-0.1-0.3-0.3-0.6-0.6-0.9
			c-0.3-0.3-0.5-0.5-0.9-0.6c-0.3-0.2-0.7-0.2-1.1-0.2c-0.4,0-0.8,0.1-1.1,0.2c-0.3,0.2-0.6,0.4-0.9,0.6c-0.3,0.3-0.4,0.5-0.6,0.9
			C104.6,102.2,104.5,102.5,104.5,102.9z"/>
		<path class="st1" d="M115.5,91.2h3.4v7.4h0c0.4-0.5,0.9-0.9,1.5-1.1c0.6-0.2,1.3-0.3,2-0.3c0.8,0,1.5,0.2,2.1,0.5
			c0.6,0.3,1.2,0.8,1.6,1.3c0.4,0.5,0.8,1.2,1,1.9c0.2,0.7,0.4,1.5,0.4,2.2c0,0.8-0.1,1.6-0.4,2.3c-0.3,0.7-0.6,1.3-1.1,1.8
			c-0.5,0.5-1.1,0.9-1.7,1.2c-0.7,0.3-1.4,0.4-2.2,0.4c-0.4,0-0.8-0.1-1.1-0.2c-0.4-0.1-0.7-0.2-1-0.4c-0.3-0.2-0.6-0.4-0.8-0.6
			c-0.2-0.2-0.4-0.4-0.5-0.6h0v1.5h-3.2V91.2z M118.6,102.9c0,0.8,0.2,1.5,0.7,2c0.5,0.5,1.2,0.8,2,0.8s1.5-0.3,2-0.8
			c0.5-0.5,0.7-1.2,0.7-2c0-0.8-0.2-1.5-0.7-2c-0.5-0.5-1.2-0.8-2-0.8s-1.5,0.3-2,0.8C118.9,101.4,118.6,102.1,118.6,102.9z"/>
		<path class="st1" d="M129.1,102.9c0-0.9,0.2-1.7,0.5-2.4c0.3-0.7,0.8-1.3,1.3-1.8c0.6-0.5,1.2-0.9,2-1.2c0.8-0.3,1.6-0.4,2.4-0.4
			c0.9,0,1.7,0.1,2.4,0.4c0.8,0.3,1.4,0.7,2,1.2c0.6,0.5,1,1.1,1.3,1.8c0.3,0.7,0.5,1.5,0.5,2.4c0,0.9-0.2,1.7-0.5,2.4
			c-0.3,0.7-0.8,1.3-1.3,1.8c-0.6,0.5-1.2,0.9-2,1.2c-0.8,0.3-1.6,0.4-2.4,0.4c-0.9,0-1.7-0.1-2.4-0.4c-0.8-0.3-1.4-0.7-2-1.2
			c-0.6-0.5-1-1.1-1.3-1.8S129.1,103.8,129.1,102.9z M132.6,102.9c0,0.8,0.2,1.5,0.7,2c0.5,0.5,1.2,0.8,2,0.8s1.5-0.3,2-0.8
			c0.5-0.5,0.7-1.2,0.7-2c0-0.8-0.2-1.5-0.7-2c-0.5-0.5-1.2-0.8-2-0.8s-1.5,0.3-2,0.8C132.8,101.4,132.6,102.1,132.6,102.9z"/>
		<path class="st1" d="M150.5,107.1L150.5,107.1c-0.4,0.6-0.9,1-1.6,1.3c-0.6,0.3-1.3,0.4-2,0.4c-0.5,0-1-0.1-1.5-0.2
			c-0.5-0.1-0.9-0.4-1.3-0.7c-0.4-0.3-0.7-0.6-0.9-1.1c-0.2-0.4-0.3-0.9-0.3-1.5c0-0.6,0.1-1.2,0.4-1.6c0.2-0.4,0.6-0.8,1-1.1
			c0.4-0.3,0.9-0.5,1.4-0.7c0.5-0.2,1.1-0.3,1.6-0.4c0.6-0.1,1.1-0.1,1.7-0.1c0.6,0,1.1,0,1.5,0c0-0.6-0.2-1.1-0.7-1.5
			c-0.4-0.4-0.9-0.5-1.5-0.5c-0.6,0-1.1,0.1-1.5,0.4c-0.5,0.2-0.9,0.6-1.2,1l-1.8-1.9c0.6-0.6,1.4-1,2.2-1.3
			c0.9-0.3,1.7-0.4,2.7-0.4c1,0,1.8,0.1,2.5,0.4c0.6,0.3,1.2,0.6,1.6,1.1c0.4,0.5,0.7,1.1,0.8,1.8c0.2,0.7,0.2,1.5,0.2,2.5v5.7h-3.2
			V107.1z M149.6,103.6c-0.3,0-0.6,0-1,0c-0.4,0-0.8,0.1-1.1,0.2c-0.4,0.1-0.7,0.3-0.9,0.5c-0.3,0.2-0.4,0.5-0.4,0.9
			c0,0.4,0.2,0.7,0.5,0.9c0.4,0.2,0.7,0.3,1.1,0.3c0.3,0,0.7,0,1-0.1c0.3-0.1,0.6-0.2,0.8-0.4c0.2-0.2,0.4-0.4,0.6-0.6
			c0.1-0.3,0.2-0.6,0.2-0.9v-0.7H149.6z"/>
		<path class="st1" d="M155.9,97.4h3.4v1.8h0c0.4-0.7,0.8-1.2,1.3-1.5c0.5-0.3,1.1-0.5,1.9-0.5c0.2,0,0.4,0,0.6,0
			c0.2,0,0.4,0,0.5,0.1v3.1c-0.2-0.1-0.5-0.1-0.7-0.2c-0.2,0-0.5-0.1-0.7-0.1c-0.7,0-1.2,0.1-1.6,0.3c-0.4,0.2-0.7,0.4-0.9,0.8
			c-0.2,0.3-0.3,0.7-0.4,1.2c-0.1,0.5-0.1,1-0.1,1.5v4.6h-3.4V97.4z"/>
		<path class="st1" d="M176.9,108.5h-3.2V107h0c-0.1,0.2-0.3,0.4-0.5,0.6c-0.2,0.2-0.5,0.4-0.8,0.6c-0.3,0.2-0.6,0.3-1,0.4
			c-0.4,0.1-0.7,0.2-1.1,0.2c-0.8,0-1.6-0.1-2.2-0.4c-0.7-0.3-1.2-0.7-1.7-1.2c-0.5-0.5-0.9-1.1-1.1-1.8c-0.3-0.7-0.4-1.5-0.4-2.3
			c0-0.8,0.1-1.5,0.4-2.2c0.2-0.7,0.6-1.3,1-1.9c0.4-0.5,1-1,1.6-1.3c0.6-0.3,1.3-0.5,2.1-0.5c0.7,0,1.4,0.1,2,0.3
			c0.6,0.2,1.1,0.6,1.5,1.1h0v-7.4h3.4V108.5z M173.7,102.9c0-0.8-0.2-1.5-0.7-2c-0.5-0.5-1.2-0.8-2-0.8c-0.9,0-1.5,0.3-2,0.8
			c-0.5,0.5-0.7,1.2-0.7,2c0,0.8,0.2,1.5,0.7,2c0.5,0.5,1.2,0.8,2,0.8c0.9,0,1.5-0.3,2-0.8C173.5,104.5,173.7,103.8,173.7,102.9z"/>
	</g>
</g>
</svg>
