<svg shape-rendering="crispEdges" xmlns="http://www.w3.org/2000/svg" viewBox="0 0 22 20" aria-labelledby="uniqueTitleID uniqueDescID" role="img"><title id="uniqueTitleID">Favicon</title><desc id="uniqueDescID">Morgane Peng avatar</desc><path fill="#ffdb58" d="M0 0h22v20H0z"/><path d="M7 2.5h8m-9 1h1m8 0h1m-11 1h1m10 0h1m-12 1h1m11 0h1m-14 1h1m12 0h1m-14 1h1m13 0h1m-15 1h1m13 0h1m-15 1h1m2 0h3m2 0h3m3 0h1m-15 1h1m13 0h1m-15 1h1m13 0h1m-14 1h1m12 0h1m-14 1h1m11 0h1m-12 1h1m10 0h1m-12 1h1m2 0h1m3 0h1m3 0h1m-12 1h1m1 0h1m5 0h1m2 0h1m-12 1h2m7 0h1m1 0h1m-12 1h1m9 0h1m-11 1h1m9 0h1" stroke="#210606"/><path d="M7 3.5h1m-2 1h1m-2 2h1m6 0h1m0 1h1m3 0h1m-10 1h1m5 0h1m-8 2h1m7 0h1m-11 1h1m9 0h1m1 1h1m-12 1h1m7 0h1m-7 1h1m4 0h2m-7 1h1m1 0h3m1 0h1m1 0h1m-10 1h1m7 0h2m-1 1h1" stroke="#785745"/><path d="M8 3.5h1m4 0h2m-8 1h1m7 0h1m0 1h1m-6 1h1m4 0h1m-12 1h1m3 0h2m6 1h1m-1 1h1m-1 1h1m-2 1h2m-12 1h1m8 0h2m-2 1h2m-10 1h1m7 0h2m-10 1h1m7 0h1" stroke="#b47c5d"/><path d="M9 3.5h1m2 0h1m0 1h2m-9 1h1m6 0h1m1 0h1m-6 1h1m3 1h1m1 0h1m-12 1h1m9 0h1m-11 1h1m9 0h2m-12 1h1m10 0h1m-11 1h1m0 2h1" stroke="#db9671"/><path d="M10 3.5h2m-4 1h1m1 0h1m1 0h1m-6 1h1m2 0h3m1 0h1m-9 1h2m1 0h1m3 0h1m1 0h1m-10 1h1m1 0h1m6 0h1m-10 1h2m8 0h1m-11 1h1" stroke="#f4bb9c"/><path d="M9 4.5h1m1 0h1m-4 1h2m-2 1h1m5 0h1m-8 1h1m-2 3h1" stroke="#f9dccc"/><path d="M11 7.5h2m-4 1h1m3 0h1m-7 3h1m-1 1h1m6 0h1m-7 1h1m4 0h1m-5 1h1m2 0h1m-1 2h1" stroke="#dfb695"/><path d="M10 8.5h3m-3 1h2m-2 1h2m-2 1h2m-2 1h2m-2 1h2" stroke="#ffe7ce"/><path d="M8 10.5h1m4 0h1m-5 6h1m3 0h1m-6 1h1m4 0h2m-8 1h1m5 0h3m-9 1h1m5 0h3" stroke="#b5c6ce"/><path d="M9 10.5h1m2 0h1m-4 1h1m2 0h1" stroke="#de7629"/><path d="M14 10.5h1m-1 1h1" stroke="#dead94"/><path d="M8 11.5h1m4 0h1m-5 6h4m-5 1h5m-5 1h5" stroke="#efefff"/><path d="M8 12.5h1m4 0h1" stroke="#ad948c"/><path d="M9 12.5h1m2 0h1" stroke="#7b4242"/><path d="M9 13.5h1m2 0h1m-3 3h2" stroke="#efc6a5"/><path d="M10 14.5h2" stroke="#a56b63"/></svg>