<svg xmlns="http://www.w3.org/2000/svg" viewBox="0 -0.5 22 20" shape-rendering="crispEdges"><title id="uniqueTitleID">Morgane Peng</title>
<path stroke="#ffdb58" d="M0 0h22M0 1h22M0 2h7M15 2h7M0 3h6M16 3h6M0 4h5M17 4h5M0 5h5M18 5h4M0 6h4M18 6h4M0 7h4M19 7h3M0 8h4M19 8h3M0 9h4M19 9h3M0 10h4M19 10h3M0 11h4M19 11h3M0 12h5M19 12h3M0 13h5M18 13h4M0 14h6M18 14h4M0 15h6M18 15h4M0 16h6M18 16h4M0 17h6M18 17h4M0 18h6M17 18h5M0 19h6M17 19h5" />
<path stroke="#210606" d="M7 2h8M6 3h1M15 3h1M5 4h1M16 4h1M5 5h1M17 5h1M4 6h1M17 6h1M4 7h1M18 7h1M4 8h1M18 8h1M4 9h1M7 9h3M12 9h3M18 9h1M4 10h1M18 10h1M4 11h1M18 11h1M5 12h1M18 12h1M5 13h1M17 13h1M6 14h1M17 14h1M6 15h1M9 15h1M13 15h1M17 15h1M6 16h1M8 16h1M14 16h1M17 16h1M6 17h2M15 17h1M17 17h1M6 18h1M16 18h1M6 19h1M16 19h1" />
<path stroke="#785745" d="M7 3h1M6 4h1M5 6h1M12 6h1M13 7h1M17 7h1M8 8h1M14 8h1M7 10h1M15 10h1M5 11h1M15 11h1M17 12h1M6 13h1M14 13h1M8 14h1M13 14h2M8 15h1M10 15h3M14 15h1M16 15h1M7 16h1M15 16h2M16 17h1" />
<path stroke="#b47c5d" d="M8 3h1M13 3h2M7 4h1M15 4h1M16 5h1M11 6h1M16 6h1M5 7h1M9 7h2M17 8h1M17 9h1M17 10h1M16 11h2M6 12h1M15 12h2M15 13h2M7 14h1M15 14h2M7 15h1M15 15h1" />
<path stroke="#db9671" d="M9 3h1M12 3h1M13 4h2M6 5h1M13 5h1M15 5h1M10 6h1M14 7h1M16 7h1M5 8h1M15 8h1M5 9h1M15 9h2M5 10h1M16 10h1M6 11h1M7 13h1" />
<path stroke="#f4bb9c" d="M10 3h2M8 4h1M10 4h1M12 4h1M7 5h1M10 5h3M14 5h1M6 6h2M9 6h1M13 6h1M15 6h1M6 7h1M8 7h1M15 7h1M6 8h2M16 8h1M6 9h1" />
<path stroke="#f9dccc" d="M9 4h1M11 4h1M8 5h2M8 6h1M14 6h1M7 7h1M6 10h1" />
<path stroke="#dfb695" d="M11 7h2M9 8h1M13 8h1M7 11h1M7 12h1M14 12h1M8 13h1M13 13h1M9 14h1M12 14h1M12 16h1" />
<path stroke="#ffe7ce" d="M10 8h3M10 9h2M10 10h2M10 11h2M10 12h2M10 13h2" />
<path stroke="#b5c6ce" d="M8 10h1M13 10h1M9 16h1M13 16h1M8 17h1M13 17h2M7 18h1M13 18h3M7 19h1M13 19h3" />
<path stroke="#de7629" d="M9 10h1M12 10h1M9 11h1M12 11h1" />
<path stroke="#dead94" d="M14 10h1M14 11h1" />
<path stroke="#efefff" d="M8 11h1M13 11h1M9 17h4M8 18h5M8 19h5" />
<path stroke="#ad948c" d="M8 12h1M13 12h1" />
<path stroke="#7b4242" d="M9 12h1M12 12h1" />
<path stroke="#efc6a5" d="M9 13h1M12 13h1M10 16h2" />
<path stroke="#a56b63" d="M10 14h2" />
</svg>