<svg width="634.001" height="74.301" viewBox="0 0 634.001 74.301" xmlns="http://www.w3.org/2000/svg"><g id="svgGroup" stroke-linecap="round" fill-rule="evenodd" font-size="9pt" stroke="#000" stroke-width="0.25mm" fill="rgba(0,0,0,.84);" style="stroke:#000;stroke-width:0.25mm;fill:rgba(0,0,0,.84)"><path d="M 0.001 70.2 L 0.001 5.9 A 8.524 8.524 0 0 1 0.117 4.437 Q 0.253 3.66 0.547 3.06 A 3.371 3.371 0 0 1 1.651 1.75 Q 3.301 0.6 5.301 0.6 Q 7.201 0.6 8.601 1.15 A 6.461 6.461 0 0 1 10.273 2.131 A 8.416 8.416 0 0 1 11.201 3 Q 12.072 3.944 12.996 5.415 A 29.778 29.778 0 0 1 13.701 6.6 L 27.701 33.1 L 41.901 6.6 Q 43.201 4.3 44.351 3 Q 45.501 1.7 46.901 1.15 Q 48.213 0.635 49.965 0.602 A 12.808 12.808 0 0 1 50.201 0.6 A 6.491 6.491 0 0 1 52.518 1.006 A 6.004 6.004 0 0 1 53.901 1.75 A 3.43 3.43 0 0 1 55.075 3.298 Q 55.315 3.892 55.419 4.641 A 9.119 9.119 0 0 1 55.501 5.9 L 55.501 70.2 A 2.693 2.693 0 0 1 54.494 72.368 A 3.963 3.963 0 0 1 53.851 72.8 A 7.44 7.44 0 0 1 50.45 73.697 A 8.747 8.747 0 0 1 50.201 73.7 A 7.703 7.703 0 0 1 47.507 73.235 A 7.24 7.24 0 0 1 46.551 72.8 A 3.699 3.699 0 0 1 45.681 72.16 A 2.68 2.68 0 0 1 44.901 70.2 L 44.901 22.2 L 31.501 47 Q 30.857 48.046 30.084 48.607 A 3.65 3.65 0 0 1 29.701 48.85 Q 28.701 49.4 27.601 49.4 A 3.676 3.676 0 0 1 26.587 49.251 Q 26.181 49.135 25.757 48.928 A 6.133 6.133 0 0 1 25.701 48.9 A 3.075 3.075 0 0 1 24.829 48.234 Q 24.523 47.905 24.254 47.461 A 6.531 6.531 0 0 1 24.001 47 L 10.601 21.6 L 10.601 70.2 A 2.693 2.693 0 0 1 9.594 72.368 A 3.963 3.963 0 0 1 8.951 72.8 A 7.44 7.44 0 0 1 5.55 73.697 A 8.747 8.747 0 0 1 5.301 73.7 A 7.703 7.703 0 0 1 2.607 73.235 A 7.24 7.24 0 0 1 1.651 72.8 A 3.699 3.699 0 0 1 0.781 72.16 A 2.68 2.68 0 0 1 0.001 70.2 Z M 292.201 70.2 L 292.201 4.1 A 3.384 3.384 0 0 1 292.379 2.972 Q 292.705 2.043 293.633 1.515 A 3.724 3.724 0 0 1 293.851 1.4 A 8.069 8.069 0 0 1 296.884 0.62 A 9.612 9.612 0 0 1 297.501 0.6 A 11.012 11.012 0 0 1 298.954 0.691 Q 299.949 0.824 300.751 1.15 A 5.875 5.875 0 0 1 302.415 2.195 A 7.629 7.629 0 0 1 303.201 3 A 13.137 13.137 0 0 1 304.004 4.064 Q 304.732 5.127 305.501 6.6 L 327.701 49.9 L 327.701 4 A 3.048 3.048 0 0 1 327.905 2.858 Q 328.21 2.095 328.974 1.61 A 3.753 3.753 0 0 1 329.351 1.4 A 8.069 8.069 0 0 1 332.384 0.62 A 9.612 9.612 0 0 1 333.001 0.6 A 8.672 8.672 0 0 1 335.447 0.937 A 7.726 7.726 0 0 1 336.651 1.4 A 3.212 3.212 0 0 1 337.573 2.051 Q 338.207 2.708 338.289 3.699 A 3.664 3.664 0 0 1 338.301 4 L 338.301 70.2 A 2.693 2.693 0 0 1 337.294 72.368 A 3.963 3.963 0 0 1 336.651 72.8 A 7.44 7.44 0 0 1 333.25 73.697 A 8.747 8.747 0 0 1 333.001 73.7 A 6.854 6.854 0 0 1 330.44 73.228 A 6.493 6.493 0 0 1 329.401 72.7 A 7.53 7.53 0 0 1 327.477 70.95 A 9.745 9.745 0 0 1 326.701 69.8 L 302.801 24.3 L 302.801 70.2 A 2.693 2.693 0 0 1 301.794 72.368 A 3.963 3.963 0 0 1 301.151 72.8 A 7.44 7.44 0 0 1 297.75 73.697 A 8.747 8.747 0 0 1 297.501 73.7 A 7.703 7.703 0 0 1 294.807 73.235 A 7.24 7.24 0 0 1 293.851 72.8 A 3.699 3.699 0 0 1 292.981 72.16 A 2.68 2.68 0 0 1 292.201 70.2 Z M 530.501 70.2 L 530.501 4.1 A 3.384 3.384 0 0 1 530.679 2.972 Q 531.005 2.043 531.933 1.515 A 3.724 3.724 0 0 1 532.151 1.4 A 8.069 8.069 0 0 1 535.184 0.62 A 9.612 9.612 0 0 1 535.801 0.6 A 11.012 11.012 0 0 1 537.254 0.691 Q 538.249 0.824 539.051 1.15 A 5.875 5.875 0 0 1 540.715 2.195 A 7.629 7.629 0 0 1 541.501 3 A 13.137 13.137 0 0 1 542.304 4.064 Q 543.032 5.127 543.801 6.6 L 566.001 49.9 L 566.001 4 A 3.048 3.048 0 0 1 566.205 2.858 Q 566.51 2.095 567.274 1.61 A 3.753 3.753 0 0 1 567.651 1.4 A 8.069 8.069 0 0 1 570.684 0.62 A 9.612 9.612 0 0 1 571.301 0.6 A 8.672 8.672 0 0 1 573.747 0.937 A 7.726 7.726 0 0 1 574.951 1.4 A 3.212 3.212 0 0 1 575.873 2.051 Q 576.507 2.708 576.589 3.699 A 3.664 3.664 0 0 1 576.601 4 L 576.601 70.2 A 2.693 2.693 0 0 1 575.594 72.368 A 3.963 3.963 0 0 1 574.951 72.8 A 7.44 7.44 0 0 1 571.55 73.697 A 8.747 8.747 0 0 1 571.301 73.7 A 6.854 6.854 0 0 1 568.74 73.228 A 6.493 6.493 0 0 1 567.701 72.7 A 7.53 7.53 0 0 1 565.777 70.95 A 9.745 9.745 0 0 1 565.001 69.8 L 541.101 24.3 L 541.101 70.2 A 2.693 2.693 0 0 1 540.094 72.368 A 3.963 3.963 0 0 1 539.451 72.8 A 7.44 7.44 0 0 1 536.05 73.697 A 8.747 8.747 0 0 1 535.801 73.7 A 7.703 7.703 0 0 1 533.107 73.235 A 7.24 7.24 0 0 1 532.151 72.8 A 3.699 3.699 0 0 1 531.281 72.16 A 2.68 2.68 0 0 1 530.501 70.2 Z M 179.901 52 L 179.901 22.9 A 36.27 36.27 0 0 1 180.249 17.71 Q 180.915 13.116 182.851 9.9 Q 185.801 5 190.851 2.8 Q 195.901 0.6 202.001 0.6 A 33.991 33.991 0 0 1 207.955 1.097 A 25.095 25.095 0 0 1 213.901 2.9 A 20.934 20.934 0 0 1 218.821 5.954 A 17.82 17.82 0 0 1 221.901 9.3 A 15.734 15.734 0 0 1 224.642 16.516 A 20.399 20.399 0 0 1 224.801 19.1 Q 224.801 21.667 223.813 22.806 A 2.555 2.555 0 0 1 223.451 23.15 A 4.391 4.391 0 0 1 222.104 23.845 Q 221.491 24.045 220.744 24.132 A 10.7 10.7 0 0 1 219.501 24.2 A 9.91 9.91 0 0 1 217.711 24.046 A 7.258 7.258 0 0 1 215.851 23.45 A 2.759 2.759 0 0 1 214.316 21.522 A 4.4 4.4 0 0 1 214.201 20.7 A 17.908 17.908 0 0 0 213.329 16.684 A 16.031 16.031 0 0 0 212.801 15.35 Q 211.701 12.9 209.201 11.45 A 9.357 9.357 0 0 0 206.958 10.539 Q 204.982 10 202.301 10 Q 196.701 10 193.551 13.15 Q 191.091 15.61 190.552 20.175 A 23.282 23.282 0 0 0 190.401 22.9 L 190.401 52 Q 190.401 58.6 193.551 61.75 A 10.367 10.367 0 0 0 198.519 64.476 Q 200.245 64.9 202.301 64.9 A 15.514 15.514 0 0 0 205.957 64.493 A 10.584 10.584 0 0 0 211.001 61.75 Q 213.537 59.254 214.063 54.591 A 23.13 23.13 0 0 0 214.201 52 L 214.201 43.8 L 204.101 43.8 A 3.143 3.143 0 0 1 202.896 43.577 Q 202.128 43.262 201.601 42.5 A 5.08 5.08 0 0 1 200.707 39.77 A 6.247 6.247 0 0 1 200.701 39.5 A 4.977 4.977 0 0 1 201.427 36.926 A 6.115 6.115 0 0 1 201.601 36.65 A 3.141 3.141 0 0 1 202.443 35.779 Q 203.093 35.338 203.953 35.303 A 3.68 3.68 0 0 1 204.101 35.3 L 221.301 35.3 A 4.392 4.392 0 0 1 222.353 35.419 A 2.892 2.892 0 0 1 223.901 36.35 A 3.723 3.723 0 0 1 224.793 38.62 A 4.797 4.797 0 0 1 224.801 38.9 L 224.801 52 A 35.676 35.676 0 0 1 224.446 57.191 Q 224.045 59.918 223.187 62.16 A 17.17 17.17 0 0 1 221.801 65 Q 218.801 69.9 213.701 72.1 A 26.946 26.946 0 0 1 205.843 74.116 A 33.335 33.335 0 0 1 202.301 74.3 Q 195.901 74.3 190.851 72.1 Q 185.801 69.9 182.851 65 A 18.662 18.662 0 0 1 180.834 60.1 Q 180.251 57.885 180.032 55.275 A 39.244 39.244 0 0 1 179.901 52 Z M 589.101 52 L 589.101 22.9 A 36.27 36.27 0 0 1 589.449 17.71 Q 590.115 13.116 592.051 9.9 Q 595.001 5 600.051 2.8 Q 605.101 0.6 611.201 0.6 A 33.991 33.991 0 0 1 617.155 1.097 A 25.095 25.095 0 0 1 623.101 2.9 A 20.934 20.934 0 0 1 628.021 5.954 A 17.82 17.82 0 0 1 631.101 9.3 A 15.734 15.734 0 0 1 633.842 16.516 A 20.399 20.399 0 0 1 634.001 19.1 Q 634.001 21.667 633.013 22.806 A 2.555 2.555 0 0 1 632.651 23.15 A 4.391 4.391 0 0 1 631.304 23.845 Q 630.691 24.045 629.944 24.132 A 10.7 10.7 0 0 1 628.701 24.2 A 9.91 9.91 0 0 1 626.911 24.046 A 7.258 7.258 0 0 1 625.051 23.45 A 2.759 2.759 0 0 1 623.516 21.522 A 4.4 4.4 0 0 1 623.401 20.7 A 17.908 17.908 0 0 0 622.529 16.684 A 16.031 16.031 0 0 0 622.001 15.35 Q 620.901 12.9 618.401 11.45 A 9.357 9.357 0 0 0 616.158 10.539 Q 614.182 10 611.501 10 Q 605.901 10 602.751 13.15 Q 600.291 15.61 599.752 20.175 A 23.282 23.282 0 0 0 599.601 22.9 L 599.601 52 Q 599.601 58.6 602.751 61.75 A 10.367 10.367 0 0 0 607.719 64.476 Q 609.445 64.9 611.501 64.9 A 15.514 15.514 0 0 0 615.157 64.493 A 10.584 10.584 0 0 0 620.201 61.75 Q 622.737 59.254 623.263 54.591 A 23.13 23.13 0 0 0 623.401 52 L 623.401 43.8 L 613.301 43.8 A 3.143 3.143 0 0 1 612.096 43.577 Q 611.328 43.262 610.801 42.5 A 5.08 5.08 0 0 1 609.907 39.77 A 6.247 6.247 0 0 1 609.901 39.5 A 4.977 4.977 0 0 1 610.627 36.926 A 6.115 6.115 0 0 1 610.801 36.65 A 3.141 3.141 0 0 1 611.643 35.779 Q 612.293 35.338 613.153 35.303 A 3.68 3.68 0 0 1 613.301 35.3 L 630.501 35.3 A 4.392 4.392 0 0 1 631.553 35.419 A 2.892 2.892 0 0 1 633.101 36.35 A 3.723 3.723 0 0 1 633.993 38.62 A 4.797 4.797 0 0 1 634.001 38.9 L 634.001 52 A 35.676 35.676 0 0 1 633.646 57.191 Q 633.245 59.918 632.387 62.16 A 17.17 17.17 0 0 1 631.001 65 Q 628.001 69.9 622.901 72.1 A 26.946 26.946 0 0 1 615.043 74.116 A 33.335 33.335 0 0 1 611.501 74.3 Q 605.101 74.3 600.051 72.1 Q 595.001 69.9 592.051 65 A 18.662 18.662 0 0 1 590.034 60.1 Q 589.451 57.885 589.232 55.275 A 39.244 39.244 0 0 1 589.101 52 Z M 391.801 73.7 L 356.201 73.7 Q 354.501 73.7 353.001 72.8 Q 351.501 71.9 351.501 70.2 L 351.501 4.1 A 3.041 3.041 0 0 1 351.758 2.83 Q 352.059 2.165 352.714 1.69 A 3.901 3.901 0 0 1 353.001 1.5 Q 354.501 0.6 356.201 0.6 L 391.801 0.6 A 3.736 3.736 0 0 1 392.881 0.747 A 2.649 2.649 0 0 1 394.501 2.1 Q 395.301 3.6 395.301 5.2 A 6.81 6.81 0 0 1 395.047 7.092 A 5.787 5.787 0 0 1 394.401 8.55 Q 393.563 9.901 392.03 9.993 A 3.802 3.802 0 0 1 391.801 10 L 362.101 10 L 362.101 32.9 L 377.501 32.9 A 3.531 3.531 0 0 1 378.641 33.075 A 2.868 2.868 0 0 1 380.101 34.2 A 5.08 5.08 0 0 1 380.995 36.931 A 6.247 6.247 0 0 1 381.001 37.2 A 5.119 5.119 0 0 1 380.517 39.347 A 6.408 6.408 0 0 1 380.201 39.95 A 2.643 2.643 0 0 1 378.344 41.224 A 4.375 4.375 0 0 1 377.501 41.3 L 362.101 41.3 L 362.101 64.3 L 391.801 64.3 A 3.267 3.267 0 0 1 393.002 64.512 Q 393.851 64.844 394.401 65.7 Q 395.301 67.1 395.301 69.1 A 6.471 6.471 0 0 1 394.574 72.059 A 7.586 7.586 0 0 1 394.501 72.2 A 2.664 2.664 0 0 1 392.605 73.623 A 3.988 3.988 0 0 1 391.801 73.7 Z M 518.601 73.7 L 483.001 73.7 Q 481.301 73.7 479.801 72.8 Q 478.301 71.9 478.301 70.2 L 478.301 4.1 A 3.041 3.041 0 0 1 478.558 2.83 Q 478.859 2.165 479.514 1.69 A 3.901 3.901 0 0 1 479.801 1.5 Q 481.301 0.6 483.001 0.6 L 518.601 0.6 A 3.736 3.736 0 0 1 519.681 0.747 A 2.649 2.649 0 0 1 521.301 2.1 Q 522.101 3.6 522.101 5.2 A 6.81 6.81 0 0 1 521.847 7.092 A 5.787 5.787 0 0 1 521.201 8.55 Q 520.363 9.901 518.83 9.993 A 3.802 3.802 0 0 1 518.601 10 L 488.901 10 L 488.901 32.9 L 504.301 32.9 A 3.531 3.531 0 0 1 505.441 33.075 A 2.868 2.868 0 0 1 506.901 34.2 A 5.08 5.08 0 0 1 507.795 36.931 A 6.247 6.247 0 0 1 507.801 37.2 A 5.119 5.119 0 0 1 507.317 39.347 A 6.408 6.408 0 0 1 507.001 39.95 A 2.643 2.643 0 0 1 505.144 41.224 A 4.375 4.375 0 0 1 504.301 41.3 L 488.901 41.3 L 488.901 64.3 L 518.601 64.3 A 3.267 3.267 0 0 1 519.802 64.512 Q 520.651 64.844 521.201 65.7 Q 522.101 67.1 522.101 69.1 A 6.471 6.471 0 0 1 521.374 72.059 A 7.586 7.586 0 0 1 521.301 72.2 A 2.664 2.664 0 0 1 519.405 73.623 A 3.988 3.988 0 0 1 518.601 73.7 Z M 160.601 70.9 L 145.901 42.3 L 135.901 42.3 L 135.901 70.2 A 2.693 2.693 0 0 1 134.894 72.368 A 3.963 3.963 0 0 1 134.251 72.8 A 7.44 7.44 0 0 1 130.85 73.697 A 8.747 8.747 0 0 1 130.601 73.7 A 7.703 7.703 0 0 1 127.907 73.235 A 7.24 7.24 0 0 1 126.951 72.8 A 3.699 3.699 0 0 1 126.081 72.16 A 2.68 2.68 0 0 1 125.301 70.2 L 125.301 4 Q 125.301 2.6 126.251 1.6 Q 127.201 0.6 128.901 0.6 L 147.901 0.6 A 37.237 37.237 0 0 1 154.818 1.219 A 30.58 30.58 0 0 1 159.401 2.45 Q 164.601 4.3 167.701 8.75 Q 170.801 13.2 170.801 21 A 32.254 32.254 0 0 1 170.541 25.219 Q 170.249 27.424 169.632 29.275 A 16.66 16.66 0 0 1 168.951 31 A 17.743 17.743 0 0 1 166.539 34.882 A 14.947 14.947 0 0 1 163.951 37.35 A 21.226 21.226 0 0 1 156.926 40.766 A 23.99 23.99 0 0 1 156.801 40.8 L 170.801 67.1 A 1.834 1.834 0 0 1 170.975 67.436 Q 171.051 67.624 171.101 67.85 A 5.378 5.378 0 0 1 171.158 68.142 Q 171.181 68.281 171.191 68.401 A 2.254 2.254 0 0 1 171.201 68.6 A 3.6 3.6 0 0 1 170.81 70.206 A 5.189 5.189 0 0 1 170.201 71.15 Q 169.201 72.4 167.751 73.2 Q 166.301 74 164.701 74 A 3.495 3.495 0 0 1 162.45 73.183 A 4.432 4.432 0 0 1 162.351 73.1 Q 161.301 72.2 160.601 70.9 Z M 230.901 68.4 L 250.801 3.6 A 4.32 4.32 0 0 1 252.707 1.244 A 6.035 6.035 0 0 1 253.351 0.9 Q 255.301 0 257.501 0 A 10.279 10.279 0 0 1 260.754 0.506 A 9.525 9.525 0 0 1 261.751 0.9 A 5.412 5.412 0 0 1 263.068 1.741 A 4.206 4.206 0 0 1 264.301 3.6 L 284.101 68.4 Q 284.257 68.869 284.291 69.154 A 1.235 1.235 0 0 1 284.301 69.3 Q 284.301 70.5 283.251 71.5 A 7.295 7.295 0 0 1 281.593 72.675 A 9.128 9.128 0 0 1 280.651 73.1 Q 279.101 73.7 277.601 73.7 A 5.679 5.679 0 0 1 276.495 73.598 A 4.194 4.194 0 0 1 275.351 73.2 A 2.622 2.622 0 0 1 274.254 72.092 A 3.713 3.713 0 0 1 274.001 71.5 L 269.901 57.3 L 245.101 57.3 L 241.101 71.5 A 2.752 2.752 0 0 1 240.724 72.374 A 2.372 2.372 0 0 1 239.751 73.2 A 5.166 5.166 0 0 1 238.035 73.669 A 6.31 6.31 0 0 1 237.401 73.7 A 7.486 7.486 0 0 1 235.81 73.521 A 10.176 10.176 0 0 1 234.401 73.1 Q 232.857 72.521 231.872 71.617 A 5.749 5.749 0 0 1 231.801 71.55 A 3.298 3.298 0 0 1 231.091 70.6 A 2.939 2.939 0 0 1 230.801 69.3 A 2.668 2.668 0 0 1 230.809 69.108 Q 230.823 68.918 230.861 68.655 A 12.544 12.544 0 0 1 230.901 68.4 Z M 423.701 70.2 L 423.701 4 A 3.017 3.017 0 0 1 424.645 1.791 A 4.164 4.164 0 0 1 424.851 1.6 A 4.006 4.006 0 0 1 426.815 0.684 A 5.585 5.585 0 0 1 427.801 0.6 L 447.301 0.6 Q 453.401 0.6 458.401 2.75 Q 463.401 4.9 466.301 9.75 A 18.549 18.549 0 0 1 468.283 14.597 Q 469.201 18.1 469.201 22.6 L 469.201 23.4 Q 469.201 31.4 466.251 36.3 Q 463.301 41.2 458.151 43.35 A 27.94 27.94 0 0 1 450.154 45.33 A 34.291 34.291 0 0 1 446.701 45.5 L 434.301 45.5 L 434.301 70.2 A 2.693 2.693 0 0 1 433.294 72.368 A 3.963 3.963 0 0 1 432.651 72.8 A 7.44 7.44 0 0 1 429.25 73.697 A 8.747 8.747 0 0 1 429.001 73.7 A 7.703 7.703 0 0 1 426.307 73.235 A 7.24 7.24 0 0 1 425.351 72.8 A 3.699 3.699 0 0 1 424.481 72.16 A 2.68 2.68 0 0 1 423.701 70.2 Z M 68.001 52 L 68.001 22.9 A 36.27 36.27 0 0 1 68.349 17.71 Q 69.015 13.116 70.951 9.9 Q 73.901 5 78.951 2.8 Q 84.001 0.6 90.401 0.6 Q 96.701 0.6 101.801 2.8 Q 106.901 5 109.901 9.9 A 18.557 18.557 0 0 1 111.978 14.899 Q 112.584 17.201 112.792 19.928 A 39.061 39.061 0 0 1 112.901 22.9 L 112.901 52 A 35.676 35.676 0 0 1 112.546 57.191 Q 112.145 59.918 111.287 62.16 A 17.17 17.17 0 0 1 109.901 65 Q 106.901 69.9 101.801 72.1 A 26.946 26.946 0 0 1 93.943 74.116 A 33.335 33.335 0 0 1 90.401 74.3 Q 84.001 74.3 78.951 72.1 Q 73.901 69.9 70.951 65 A 18.662 18.662 0 0 1 68.934 60.1 Q 68.351 57.885 68.132 55.275 A 39.244 39.244 0 0 1 68.001 52 Z M 102.301 52 L 102.301 22.9 Q 102.301 16.3 99.151 13.15 A 10.367 10.367 0 0 0 94.183 10.425 Q 92.457 10 90.401 10 Q 84.801 10 81.651 13.15 Q 79.191 15.61 78.652 20.175 A 23.282 23.282 0 0 0 78.501 22.9 L 78.501 52 Q 78.501 58.6 81.651 61.75 A 10.367 10.367 0 0 0 86.619 64.476 Q 88.345 64.9 90.401 64.9 A 15.514 15.514 0 0 0 94.057 64.493 A 10.584 10.584 0 0 0 99.101 61.75 Q 101.637 59.254 102.163 54.591 A 23.13 23.13 0 0 0 102.301 52 Z M 434.301 10 L 434.301 37.1 L 446.701 37.1 Q 452.301 37.1 455.451 33.9 Q 458.601 30.7 458.601 24.1 L 458.601 22.9 Q 458.601 16.3 455.451 13.15 A 10.367 10.367 0 0 0 450.483 10.425 Q 448.757 10 446.701 10 L 434.301 10 Z M 257.501 14.5 L 247.501 48.8 L 267.501 48.8 L 257.501 14.5 Z M 135.901 10 L 135.901 33.8 L 147.901 33.8 A 18.862 18.862 0 0 0 151.598 33.459 Q 153.822 33.014 155.562 31.99 A 10.675 10.675 0 0 0 156.851 31.1 Q 160.201 28.4 160.201 21.9 Q 160.201 15.4 156.851 12.7 A 11.573 11.573 0 0 0 152.514 10.555 Q 150.438 10 147.901 10 L 135.901 10 Z" vector-effect="non-scaling-stroke"/></g></svg>